<?xml version="1.0" standalone="no"?>
<!DOCTYPE svg PUBLIC "-//W3C//DTD SVG 20010904//EN"
 "http://www.w3.org/TR/2001/REC-SVG-20010904/DTD/svg10.dtd">
<svg version="1.0" xmlns="http://www.w3.org/2000/svg"
 width="700.000000pt" height="700.000000pt" viewBox="0 0 700.000000 700.000000"
 preserveAspectRatio="xMidYMid meet">
<metadata>
Created by potrace 1.14, written by Peter Selinger 2001-2017
</metadata>
<g transform="translate(0.000000,700.000000) scale(0.100000,-0.100000)"
fill="#000000" stroke="none">
<path d="M1134 4259 l-759 -759 760 -760 760 -760 270 270 270 270 -150 150
-150 150 -120 -120 -120 -120 -460 460 -460 460 460 460 460 460 460 -460 460
-460 -173 -173 -172 -172 150 -150 150 -150 322 322 321 322 -414 419 c-228
231 -570 573 -760 760 l-345 341 -760 -760z"/>
<path d="M4835 4750 l-270 -270 145 -145 c80 -80 149 -145 155 -145 5 0 62 52
125 115 l115 115 460 -460 460 -460 -460 -460 -460 -460 -460 460 -460 460
175 175 175 175 -150 150 -150 150 -325 -325 -325 -325 760 -760 760 -760 760
760 760 760 -760 760 -760 760 -270 -270z"/>
</g>
</svg>
